<svg width="100%" height="100%" viewBox="0 0 4965 1024" xmlns="http://www.w3.org/2000/svg" style="display: inline-block; vertical-align: middle;"><path d="M1328.562 857.259c54.962 75.682 85.717 100.256 133.108 103.304h7.571v37.347h-296.987v-37.347l6.060 1.55c35.791 1.533 68.056-12.79 68.056-32.221 0-11.257-3.022-15.855-32.266-54.735l-117.982-159.589-109.404 141.69c-32.266 41.945-39.837 53.202-39.837 64.442 0 22.497 32.266 40.412 72.102 40.412l9.082-1.55v37.347h-245.047v-37.347h10.089c55.953-5.092 100.322-35.797 159.313-114.561l123.539-160.117-131.597-180.536c-75.124-101.261-94.295-117.644-143.197-120.709h-10.593v-37.33h280.334v37.33h-7.554c-36.815 0-52.948 8.191-52.948 29.155 0 13.3 1.511 14.833 28.237 48.587l103.361 140.157 97.317-122.242c24.711-33.771 32.266-45.010 32.266-54.735 0-24.557-29.244-40.412-73.613-40.412h-6.043v-37.33h235.965v37.33h-4.549c-44.369 1.533-79.657 24.046-143.18 96.68l-118.486 146.799 166.884 228.628zM1823.188 322.243c180.499 0 316.125 149.864 316.629 350.87 0 201.534-134.619 349.848-316.125 349.848-72.606 0-156.308-30.671-208.232-77.231-69.584-62.892-109.421-162.637-109.421-278.748 0-194.875 138.665-344.739 317.149-344.739v0zM1821.677 988.186c136.13 0 196.632-96.663 196.131-309.436 0-217.389-62.016-319.16-195.124-319.16-132.604 0-196.145 101.772-196.145 314.562 0 217.372 59.495 314.034 195.138 314.034v0zM2469.573 968.755c35.271 0 63.524-20.981 91.24-64.442l22.193 14.322c-29.261 64.442-88.235 104.854-154.781 104.854-54.962 0-106.382-32.221-130.086-80.808-19.155-37.347-22.176-67.524-22.176-190.277v-367.253h-85.717v-37.33c84.189-1.533 153.773-86.955 166.884-203.066h23.704v203.066h179.979v37.33h-179.475v391.81c0 85.406 3.022 116.094 14.622 140.14 13.111 32.221 42.858 51.652 73.613 51.652v0zM2907.223 775.395c-3.055 173.928 1.511 183.652 88.235 185.696h14.622v37.33h-320.171v-37.33h23.687c44.353 1.533 65.052-6.659 78.163-30.688 7.538-12.79 9.065-22.514 9.065-53.202 1.511-8.191 1.511-24.029 1.511-51.652v-247.055c0-166.23-7.051-179.020-92.768-177.487h-19.155v-36.819c66.546-6.659 172.424-29.155 200.661-41.945h16.15v453.153zM3420.467 981.544c93.305 0 157.836-50.136 183.051-141.162h32.266c-33.776 119.176-119.51 183.618-246.558 183.618-173.952 0-301.016-143.206-301.016-343.207 0-203.049 137.657-358.040 314.631-358.040 109.421 0 206.721 59.844 206.721 125.835 0 32.221-19.171 54.718-45.88 54.718-36.798 0-51.924-16.366-62.013-71.1-8.578-54.718-33.776-72.616-97.334-72.616-130.069 0-195.121 96.663-195.121 291.537 0 100.256 22.21 195.386 55.969 251.653 32.769 49.609 90.25 78.764 155.284 78.764v0zM4037.625 981.544c92.768 0 157.802-50.136 183.017-141.162h32.282c-33.776 119.176-119.493 183.618-246.558 183.618-173.952 0-301-143.206-301-343.207 0-203.049 137.624-358.040 314.614-358.040 109.421 0 206.721 59.844 206.721 125.835 0 32.221-19.155 54.718-45.897 54.718-36.781 0-51.907-16.366-61.996-71.1-8.578-54.718-33.776-72.616-97.317-72.616-130.086 0-195.121 96.663-195.121 291.537 0 100.256 22.176 195.386 55.969 251.653 32.769 49.609 90.25 78.764 155.284 78.764v0zM4939.147 878.206v-0.494h25.702c-3.022 83.89-48.919 135.542-122.515 135.542-64.531 0-101.85-35.797-114.961-113.045-101.85 79.292-173.935 113.045-238.987 113.045-85.717 0-147.73-57.783-147.73-138.608 0-97.191 79.657-174.439 274.794-261.36l111.922-50.154v-32.204c0-65.974-1.511-83.89-11.583-106.387-20.682-45.010-65.051-69.057-124.043-69.057-47.391 0-88.739 12.79-104.871 35.303-11.617 14.322-13.111 19.431-19.155 53.185-6.060 47.054-28.237 72.633-59.008 72.633-26.709 0-44.353-18.92-44.353-46.543 0-28.645 19.658-60.865 51.924-90.021 45.88-38.369 109.421-57.8 190.588-57.8 100.339 0 168.395 32.221 205.21 95.13 17.644 32.238 20.682 53.202 20.682 131.966v262.893c0 91.554 0 91.554 6.043 109.469 7.554 22.497 22.193 33.771 39.837 33.771 31.258 0 52.931-27.112 60.502-77.265v0zM4728.38 857.259v-256.251l-79.673 35.269c-122.498 55.263-186.056 124.302-186.056 208.192 0 65.991 35.321 111.002 85.734 111.002 44.353 0 108.917-35.32 179.995-98.212v0zM2802.335 153.969c0-23.025 18.651-41.945 41.851-42.456 23.2 0 41.834 18.409 41.834 41.945v0.511c0 23.518-18.634 42.456-41.834 42.456s-41.851-18.937-41.851-42.456v0zM131.58 462.911c-22.68 0-41.331-18.937-41.834-42.456 0-23.536 18.651-42.456 41.834-42.456 23.2 0.511 41.851 18.92 41.851 42.456 0 23.519-18.651 42.456-41.851 42.456v0zM2767.048 192.32h-10.593c-18.147-21.475-28.237-48.587-28.237-75.699 0-64.442 51.42-116.622 114.961-116.622 63.524 0 114.944 52.18 114.944 116.622 0 27.112-10.072 54.224-28.22 75.699h-9.602c6.077-14.833 9.602-30.177 9.602-46.032 0-55.739-38.343-100.767-86.221-100.767-47.391 0-86.221 45.027-86.221 100.767 0 15.855 3.039 31.71 9.586 46.032v0zM4741.995 152.436c-36.798 31.71-83.686 49.098-132.101 50.119-51.924 0-101.85-20.453-139.655-56.778l29.747-31.71c57.48 55.245 154.277 57.8 214.292 5.62l27.716 32.749zM317.132 568.787h-29.747c-3.022 39.867-3.022 57.783-3.022 78.764 0 107.902 18.147 197.94 47.391 248.077 34.28 54.718 85.717 85.406 147.73 85.406 85.717 0 152.279-45.010 187.567-128.883h33.776c-30.755 103.321-127.048 170.811-242.008 170.811-168.412 0-295.46-147.804-295.46-344.739 0-38.863 5.54-75.171 14.118-109.435h-9.082c0 0-103.361 2.044-149.744-86.955 0 0-13.615-28.645-18.651-50.136h26.709c7.571 20.981 18.164 36.325 29.244 49.626 51.437 57.289 131.093 50.613 131.093 50.613v0.528c43.362-126.84 143.197-210.219 265.712-210.219 128.575 0 228.914 92.064 245.047 220.437l1.007 8.702c0.504 6.131 2.014 11.257 2.014 17.405h-383.695zM321.161 428.629c-16.133 25.579-23.184 50.136-30.755 107.919h283.373c3.022-14.322 3.022-22.497 3.022-33.754 0-86.955-51.94-146.799-128.575-146.799-51.924 0-97.317 27.623-127.064 72.633v0z" fill="rgb(232, 203, 145)" style="fill: rgb(232, 203, 145);"></path></svg>
